<svg version="1.1" xmlns="http://www.w3.org/2000/svg" xmlns:xlink="http://www.w3.org/1999/xlink" width="19.477" height="19.476" viewBox="0,0,256,255.98438"><g fill="#e65540" fill-rule="nonzero" stroke="none" stroke-width="1" stroke-linecap="butt" stroke-linejoin="miter" stroke-miterlimit="10" stroke-dasharray="" stroke-dashoffset="0" font-family="none" font-weight="none" font-size="none" text-anchor="none" style="mix-blend-mode: normal"><g transform="translate(0.046,-0.00558) scale(13.14371,13.14371)"><path d="M19.167,8.8l-9.008,-8.631c-0.23526,-0.22579 -0.60674,-0.22579 -0.842,0l-9.017,8.644c-0.19119,0.19176 -0.29899,0.45121 -0.3,0.722c0.0011,0.55956 0.45444,1.0129 1.014,1.014h1.42v7.709c0.00055,0.6719 0.5451,1.21645 1.217,1.217h3.449c0.33634,0 0.609,-0.27266 0.609,-0.609v-5.273c0,-0.11046 0.08954,-0.2 0.2,-0.2h3.652c0.11046,0 0.2,0.08954 0.2,0.2v5.275c0,0.33634 0.27266,0.609 0.609,0.609h3.449c0.6719,-0.00055 1.21645,-0.5451 1.217,-1.217v-7.711h1.42c0.55956,-0.0011 1.0129,-0.45444 1.014,-1.014c-0.00189,-0.27502 -0.11305,-0.53801 -0.309,-0.731zM19.167,8.8" id="interface_2_"></path></g></g></svg>