<svg version="1.1" xmlns="http://www.w3.org/2000/svg" xmlns:xlink="http://www.w3.org/1999/xlink" width="23.517" height="22.435" viewBox="0,0,256,244.21875"><g fill="#e65540" fill-rule="nonzero" stroke="none" stroke-width="1" stroke-linecap="butt" stroke-linejoin="miter" stroke-miterlimit="10" stroke-dasharray="" stroke-dashoffset="0" font-family="none" font-weight="none" font-size="none" text-anchor="none" style="mix-blend-mode: normal"><g transform="translate(0.05483,0.06338) scale(10.88574,10.88574)"><g transform="translate(0,-11.73)" id="color-palette"><path transform="translate(-51.007,-174.676)" d="M56.016,194.85c-1.40501,0 -2.544,1.13899 -2.544,2.544c0,1.40501 1.13899,2.544 2.544,2.544c1.40501,0 2.544,-1.13899 2.544,-2.544c-0.00165,-1.40433 -1.13967,-2.54235 -2.544,-2.544zM56.016,198.555c-0.6412,0 -1.161,-0.5198 -1.161,-1.161c0,-0.6412 0.5198,-1.161 1.161,-1.161c0.6412,0 1.161,0.5198 1.161,1.161c-0.00055,0.64097 -0.52003,1.16045 -1.161,1.161z" id="Path_377"></path><path transform="translate(-144.211,-298.988)" d="M153.726,325.171c-1.40501,0 -2.544,1.13899 -2.544,2.544c0,1.40501 1.13899,2.544 2.544,2.544c1.40501,0 2.544,-1.13899 2.544,-2.544c-0.00165,-1.40433 -1.13967,-2.54235 -2.544,-2.544zM153.726,328.876c-0.6412,0 -1.161,-0.5198 -1.161,-1.161c0,-0.6412 0.5198,-1.161 1.161,-1.161c0.6412,0 1.161,0.5198 1.161,1.161c-0.00055,0.64097 -0.52003,1.16045 -1.161,1.161z" id="Path_378"></path><path d="M22.879,26.161l-0.014,-0.013l-2.395,-2.26c1.37272,-1.03769 1.93511,-2.83251 1.4,-4.468c-1.50787,-4.56329 -5.75371,-7.66018 -10.55949,-7.70204c-4.80578,-0.04186 -9.10492,2.9806 -10.69205,7.51693c-1.58714,4.53633 -0.11002,9.57974 3.67361,12.54307c3.78364,2.96334 9.03406,3.18892 13.05792,0.56104c0.92045,-0.60204 1.33664,-1.73683 1.02369,-2.79122c-0.31295,-1.05439 -1.28084,-1.77838 -2.38069,-1.78078c-0.77945,0.01474 -1.44648,-0.55639 -1.55194,-1.32881c-0.10546,-0.77242 0.38407,-1.50145 1.13894,-1.69619l4.22,4.471l0.013,0.014c0.54711,0.55055 1.3468,0.76661 2.09673,0.56651c0.74993,-0.2001 1.33567,-0.78585 1.53578,-1.53578c0.2001,-0.74993 -0.01596,-1.54962 -0.56651,-2.09673zM13.943,28.333c0.55293,0.52569 1.28706,0.81827 2.05,0.817c0.49273,-0.0064 0.9296,0.31568 1.06921,0.78826c0.13961,0.47258 -0.0521,0.98035 -0.46921,1.24274c-3.52291,2.29565 -8.11616,2.09497 -11.42543,-0.4992c-3.30927,-2.59416 -4.60085,-7.00665 -3.21274,-10.97579c1.38811,-3.96914 5.14816,-6.61493 9.3529,-6.58125c4.20474,0.03368 7.92192,2.73937 9.24627,6.73024c0.37922,1.15479 -0.07901,2.41926 -1.11,3.063l-3.844,-3.625c0.24076,-1.1367 -0.11083,-2.31797 -0.934,-3.138c-1.059,-1.059 -4.4,-1.587 -5.843,-1.744c-0.20815,-0.02238 -0.41525,0.05068 -0.56328,0.19872c-0.14803,0.14803 -0.22109,0.35513 -0.19872,0.56328c0.158,1.452 0.683,4.782 1.745,5.843c0.82032,0.82264 2.00148,1.17383 3.138,0.933l1.618,1.715c-0.82028,0.44298 -1.37845,1.25238 -1.50097,2.17654c-0.12252,0.92416 0.20546,1.85104 0.88197,2.49246zM10.785,20.033c-0.521,-0.521 -0.987,-2.5 -1.233,-4.137c1.634,0.246 3.616,0.712 4.137,1.233c0.72426,0.81267 0.68872,2.04925 -0.08102,2.81898c-0.76973,0.76973 -2.00631,0.80527 -2.81898,0.08102zM21.9,28.251c-0.30536,0.29985 -0.79464,0.29985 -1.1,0l-6.517,-6.907c0.27381,-0.20362 0.51638,-0.44619 0.72,-0.72l6.907,6.518c0.14579,0.14836 0.22665,0.34858 0.22477,0.55657c-0.00188,0.208 -0.08633,0.40672 -0.23477,0.55243z" id="Path_379"></path></g></g></g></svg>