<svg version="1.1" xmlns="http://www.w3.org/2000/svg" xmlns:xlink="http://www.w3.org/1999/xlink" width="18.826" height="17.57" viewBox="0,0,256,238.90625"><g fill="#e65540" fill-rule="nonzero" stroke="none" stroke-width="1" stroke-linecap="butt" stroke-linejoin="miter" stroke-miterlimit="10" stroke-dasharray="" stroke-dashoffset="0" font-family="none" font-weight="none" font-size="none" text-anchor="none" style="mix-blend-mode: normal"><g transform="translate(0.0272,-0.019) scale(13.59822,13.59822)"><path d="M18.091,17.57c-0.39217,0.01293 -0.72088,-0.29387 -0.735,-0.686c-0.04676,-1.40731 -1.22251,-2.51198 -2.63,-2.471h-0.626c-1.40749,-0.04098 -2.58324,1.06369 -2.63,2.471c-0.02479,0.388 -0.34671,0.69 -0.7355,0.69c-0.38879,0 -0.71071,-0.30201 -0.7355,-0.69c0.07608,-2.19108 1.90858,-3.90872 4.1,-3.843h0.623c2.19142,-0.06572 4.02392,1.65192 4.1,3.843c-0.01412,0.39052 -0.34037,0.69668 -0.731,0.686zM17.5,9.094c-0.06134,-1.66667 -1.45806,-2.97042 -3.125,-2.917c-1.66694,-0.05342 -3.06366,1.25033 -3.125,2.917c0.06134,1.66667 1.45806,2.97042 3.125,2.917c1.66694,0.05342 3.06366,-1.25033 3.125,-2.917zM16.029,9.094c-0.06395,0.86651 -0.78563,1.53689 -1.6545,1.53689c-0.86887,0 -1.59055,-0.67038 -1.6545,-1.53689c0.06395,-0.86651 0.78563,-1.53689 1.6545,-1.53689c0.86887,0 1.59055,0.67038 1.6545,1.53689zM8.529,16.884c-0.01519,-0.38893 -0.33989,-0.69359 -0.729,-0.684h-3.388c-1.56883,0.05061 -2.88346,-1.17641 -2.941,-2.745v-9.338c0.05808,-1.56819 1.37255,-2.79461 2.941,-2.744h6.768c1.56807,-0.05005 2.88192,1.17621 2.94,2.744c0.02479,0.388 0.34671,0.69 0.7355,0.69c0.38879,0 0.71071,-0.30201 0.7355,-0.69c-0.08685,-2.35276 -2.05886,-4.19292 -4.412,-4.117h-6.767c-2.35314,-0.07592 -4.32515,1.76424 -4.412,4.117v9.335c0.08631,2.35316 2.05848,4.19391 4.412,4.118h3.388c0.39062,0.01012 0.71641,-0.29648 0.73,-0.687zM9.744,7.79c-0.00574,-0.18922 -0.0866,-0.36837 -0.22471,-0.49785c-0.13811,-0.12948 -0.32209,-0.19862 -0.51129,-0.19215h-3.971c-0.25609,-0.01694 -0.50033,0.11008 -0.63351,0.32947c-0.13319,0.21939 -0.13319,0.49468 0,0.71407c0.13319,0.21939 0.37742,0.34641 0.63351,0.32947h3.971c0.39143,0.01352 0.72028,-0.29165 0.736,-0.683zM11.215,5.148c-0.01412,-0.39213 -0.34283,-0.69893 -0.735,-0.686h-5.443c-0.25609,-0.01694 -0.50033,0.11008 -0.63351,0.32947c-0.13319,0.21939 -0.13319,0.49468 0,0.71407c0.13319,0.21939 0.37742,0.34641 0.63351,0.32947h5.442c0.18886,0.00647 0.37255,-0.0624 0.5106,-0.19145c0.13805,-0.12905 0.21914,-0.30768 0.2254,-0.49655zM9.744,13.04c-0.01412,-0.39213 -0.34283,-0.69893 -0.735,-0.686h-3.972c-0.25609,-0.01694 -0.50033,0.11008 -0.63351,0.32947c-0.13319,0.21939 -0.13319,0.49468 0,0.71407c0.13319,0.21939 0.37742,0.34641 0.63351,0.32947h3.971c0.39293,0.01349 0.72243,-0.29407 0.736,-0.687zM9.744,10.398c-0.01412,-0.39213 -0.34283,-0.69893 -0.735,-0.686h-3.972c-0.25609,-0.01694 -0.50033,0.11008 -0.63351,0.32947c-0.13319,0.21939 -0.13319,0.49468 0,0.71407c0.13319,0.21939 0.37742,0.34641 0.63351,0.32947h3.971c0.39218,0.0135 0.72135,-0.29286 0.736,-0.685z" id="form"></path></g></g></svg>